<svg width="66" height="41" viewBox="0 0 66 41" fill="none" xmlns="http://www.w3.org/2000/svg">
<path d="M45.7822 0C56.7884 0.00010532 65.7109 9.02616 65.7109 20.1602C65.7109 31.2941 56.7884 40.3202 45.7822 40.3203C40.8491 40.3203 36.3356 38.5055 32.8555 35.502C29.3754 38.5056 24.8619 40.3203 19.9287 40.3203C8.92247 40.3203 8.35614e-05 31.2941 0 20.1602C0 9.0261 8.92242 0 19.9287 0C24.8617 1.35537e-05 29.3754 1.81393 32.8555 4.81738C36.3355 1.81399 40.8493 0 45.7822 0Z" fill="#ED0006"/>
<path d="M45.7821 0C56.7884 4.06682e-05 65.7108 9.02612 65.7108 20.1602C65.7107 31.2941 56.7883 40.3203 45.7821 40.3203C40.849 40.3203 36.3354 38.5056 32.8553 35.502C37.1396 31.8043 39.8573 26.3037 39.8573 20.1602C39.8573 14.0163 37.1399 8.51509 32.8553 4.81738C36.3354 1.81396 40.8491 0 45.7821 0Z" fill="#F9A000"/>
<path d="M32.8555 4.81689C37.14 8.51456 39.8574 14.0159 39.8574 20.1597C39.8574 26.3032 37.1396 31.8038 32.8555 35.5015C28.5713 31.8038 25.8535 26.3032 25.8535 20.1597C25.8536 14.0159 28.5709 8.51456 32.8555 4.81689Z" fill="#FF5E00"/>
</svg>
